<mxfile host="Electron" agent="Mozilla/5.0 (Macintosh; Intel Mac OS X 10_15_7) AppleWebKit/537.36 (KHTML, like Gecko) draw.io/24.7.17 Chrome/128.0.6613.36 Electron/32.0.1 Safari/537.36" version="24.7.17">
  <diagram name="Page-1" id="03018318-947c-dd8e-b7a3-06fadd420f32">
    <mxGraphModel dx="1114" dy="808" grid="1" gridSize="10" guides="0" tooltips="1" connect="0" arrows="0" fold="1" page="1" pageScale="1" pageWidth="1100" pageHeight="850" background="none" math="0" shadow="0">
      <root>
        <mxCell id="0" />
        <mxCell id="1" parent="0" />
        <mxCell id="677b7b8949515195-1" value="" style="whiteSpace=wrap;html=1;rounded=0;shadow=0;labelBackgroundColor=none;strokeColor=#000000;strokeWidth=1;fillColor=none;fontFamily=Verdana;fontSize=12;fontColor=#000000;align=center;comic=1;" parent="1" vertex="1">
          <mxGeometry x="20" y="20" width="1060" height="110" as="geometry" />
        </mxCell>
        <mxCell id="677b7b8949515195-15" value="" style="whiteSpace=wrap;html=1;rounded=0;shadow=0;labelBackgroundColor=none;strokeWidth=0;fillColor=none;fontFamily=Verdana;fontSize=12;align=center;verticalAlign=top;spacing=10;comic=1;" parent="1" vertex="1">
          <mxGeometry x="20" y="30" width="1060" height="70" as="geometry" />
        </mxCell>
        <mxCell id="UcfG1bk-lB95s_kAaNYg-2" value="&lt;font style=&quot;font-size: 20px;&quot;&gt;Todos&lt;/font&gt;" style="rounded=0;whiteSpace=wrap;html=1;strokeWidth=0;fillColor=#656961;" parent="1" vertex="1">
          <mxGeometry x="20" y="30" width="140" height="70" as="geometry" />
        </mxCell>
        <mxCell id="UcfG1bk-lB95s_kAaNYg-3" value="&lt;font style=&quot;font-size: 20px;&quot;&gt;Contact&lt;/font&gt;" style="rounded=0;whiteSpace=wrap;html=1;" parent="1" vertex="1">
          <mxGeometry x="160" y="31" width="130" height="70" as="geometry" />
        </mxCell>
        <mxCell id="UcfG1bk-lB95s_kAaNYg-4" value="&lt;font style=&quot;font-size: 20px;&quot;&gt;About&lt;/font&gt;" style="rounded=0;whiteSpace=wrap;html=1;" parent="1" vertex="1">
          <mxGeometry x="290" y="31" width="130" height="70" as="geometry" />
        </mxCell>
        <mxCell id="ge7ueDUGkYrDEDTeEo0r-3" value="&lt;font style=&quot;font-size: 16px;&quot;&gt;&amp;nbsp; &amp;nbsp; &amp;nbsp; New Todo...&lt;/font&gt;" style="rounded=1;whiteSpace=wrap;html=1;align=left;" parent="1" vertex="1">
          <mxGeometry x="30" y="180" width="450" height="60" as="geometry" />
        </mxCell>
        <mxCell id="ge7ueDUGkYrDEDTeEo0r-5" value="&lt;font style=&quot;font-size: 16px;&quot;&gt;Add&lt;/font&gt;" style="rounded=1;whiteSpace=wrap;html=1;" parent="1" vertex="1">
          <mxGeometry x="520" y="180" width="120" height="60" as="geometry" />
        </mxCell>
        <mxCell id="ge7ueDUGkYrDEDTeEo0r-7" value="" style="rounded=1;whiteSpace=wrap;html=1;align=left;" parent="1" vertex="1">
          <mxGeometry x="30" y="280" width="615" height="60" as="geometry" />
        </mxCell>
        <mxCell id="ge7ueDUGkYrDEDTeEo0r-8" value="" style="dashed=0;labelPosition=right;align=left;shape=mxgraph.gmdl.checkbox;strokeColor=#B0B0B0;fillColor=none;strokeWidth=2;aspect=fixed;sketch=0;html=1;" parent="1" vertex="1">
          <mxGeometry x="43" y="294" width="32" height="32" as="geometry" />
        </mxCell>
        <mxCell id="ge7ueDUGkYrDEDTeEo0r-9" value="" style="strokeColor=#999999;verticalLabelPosition=bottom;shadow=0;dashed=0;verticalAlign=top;strokeWidth=2;html=1;shape=mxgraph.mockup.misc.trashcanIcon;" parent="1" vertex="1">
          <mxGeometry x="595" y="292.5" width="40" height="35" as="geometry" />
        </mxCell>
        <mxCell id="ge7ueDUGkYrDEDTeEo0r-10" value="" style="dashed=0;labelPosition=right;align=left;shape=mxgraph.gmdl.checkbox;strokeColor=#B0B0B0;fillColor=none;strokeWidth=2;aspect=fixed;sketch=0;html=1;" parent="1" vertex="1">
          <mxGeometry x="43" y="364" width="32" height="32" as="geometry" />
        </mxCell>
        <mxCell id="ge7ueDUGkYrDEDTeEo0r-11" value="" style="rounded=1;whiteSpace=wrap;html=1;" parent="1" vertex="1">
          <mxGeometry x="30" y="350" width="615" height="60" as="geometry" />
        </mxCell>
        <mxCell id="ge7ueDUGkYrDEDTeEo0r-12" value="" style="strokeColor=#999999;verticalLabelPosition=bottom;shadow=0;dashed=0;verticalAlign=top;strokeWidth=2;html=1;shape=mxgraph.mockup.misc.trashcanIcon;" parent="1" vertex="1">
          <mxGeometry x="595" y="362.5" width="40" height="35" as="geometry" />
        </mxCell>
        <mxCell id="ge7ueDUGkYrDEDTeEo0r-13" value="" style="dashed=0;labelPosition=right;align=left;shape=mxgraph.gmdl.checkbox;strokeColor=#B0B0B0;fillColor=none;strokeWidth=2;aspect=fixed;sketch=0;html=1;" parent="1" vertex="1">
          <mxGeometry x="43" y="365.5" width="32" height="32" as="geometry" />
        </mxCell>
        <mxCell id="ge7ueDUGkYrDEDTeEo0r-14" value="" style="dashed=0;labelPosition=right;align=left;shape=mxgraph.gmdl.checkbox;strokeColor=#B0B0B0;fillColor=none;strokeWidth=2;aspect=fixed;sketch=0;html=1;" parent="1" vertex="1">
          <mxGeometry x="43" y="439" width="32" height="32" as="geometry" />
        </mxCell>
        <mxCell id="ge7ueDUGkYrDEDTeEo0r-15" value="" style="rounded=1;whiteSpace=wrap;html=1;" parent="1" vertex="1">
          <mxGeometry x="30" y="425" width="615" height="60" as="geometry" />
        </mxCell>
        <mxCell id="ge7ueDUGkYrDEDTeEo0r-16" value="" style="strokeColor=#999999;verticalLabelPosition=bottom;shadow=0;dashed=0;verticalAlign=top;strokeWidth=2;html=1;shape=mxgraph.mockup.misc.trashcanIcon;" parent="1" vertex="1">
          <mxGeometry x="595" y="437.5" width="40" height="35" as="geometry" />
        </mxCell>
        <mxCell id="ge7ueDUGkYrDEDTeEo0r-17" value="" style="dashed=0;labelPosition=right;align=left;shape=mxgraph.gmdl.checkbox;strokeColor=#B0B0B0;fillColor=none;strokeWidth=2;aspect=fixed;sketch=0;html=1;" parent="1" vertex="1">
          <mxGeometry x="43" y="440.5" width="32" height="32" as="geometry" />
        </mxCell>
        <mxCell id="ge7ueDUGkYrDEDTeEo0r-18" value="&lt;font style=&quot;font-size: 16px;&quot;&gt;All&lt;/font&gt;" style="rounded=1;whiteSpace=wrap;html=1;fillColor=#0050ef;fontColor=#ffffff;strokeColor=#001DBC;" parent="1" vertex="1">
          <mxGeometry x="30" y="550" width="105" height="60" as="geometry" />
        </mxCell>
        <mxCell id="ge7ueDUGkYrDEDTeEo0r-19" value="&lt;font style=&quot;font-size: 16px;&quot;&gt;Active&lt;/font&gt;" style="rounded=1;whiteSpace=wrap;html=1;" parent="1" vertex="1">
          <mxGeometry x="140" y="550" width="105" height="60" as="geometry" />
        </mxCell>
        <mxCell id="ge7ueDUGkYrDEDTeEo0r-20" value="&lt;font style=&quot;font-size: 16px;&quot;&gt;Completed&lt;/font&gt;" style="rounded=1;whiteSpace=wrap;html=1;" parent="1" vertex="1">
          <mxGeometry x="250" y="550" width="140" height="60" as="geometry" />
        </mxCell>
        <mxCell id="ge7ueDUGkYrDEDTeEo0r-21" value="&lt;font style=&quot;font-size: 16px;&quot;&gt;Pick-up dry cleaning&lt;/font&gt;" style="text;html=1;align=left;verticalAlign=middle;whiteSpace=wrap;rounded=0;strokeWidth=16;" parent="1" vertex="1">
          <mxGeometry x="85" y="295" width="380" height="30" as="geometry" />
        </mxCell>
        <mxCell id="ge7ueDUGkYrDEDTeEo0r-22" value="&lt;span style=&quot;font-size: 16px;&quot;&gt;Mow the lawn&lt;/span&gt;" style="text;html=1;align=left;verticalAlign=middle;whiteSpace=wrap;rounded=0;strokeWidth=16;" parent="1" vertex="1">
          <mxGeometry x="85" y="366" width="380" height="30" as="geometry" />
        </mxCell>
        <mxCell id="ge7ueDUGkYrDEDTeEo0r-23" value="&lt;span style=&quot;font-size: 16px;&quot;&gt;Finish taxes&lt;/span&gt;" style="text;html=1;align=left;verticalAlign=middle;whiteSpace=wrap;rounded=0;strokeWidth=16;" parent="1" vertex="1">
          <mxGeometry x="85" y="440" width="380" height="30" as="geometry" />
        </mxCell>
        <mxCell id="b1LmSA5mV2x7A5sFaoDY-1" value="Select View:" style="text;html=1;align=center;verticalAlign=middle;resizable=0;points=[];autosize=1;strokeColor=none;fillColor=none;fontSize=23;" parent="1" vertex="1">
          <mxGeometry x="20" y="510" width="150" height="40" as="geometry" />
        </mxCell>
        <mxCell id="b1LmSA5mV2x7A5sFaoDY-3" value="Create New Todo:" style="text;html=1;align=center;verticalAlign=middle;resizable=0;points=[];autosize=1;strokeColor=none;fillColor=none;fontSize=23;" parent="1" vertex="1">
          <mxGeometry x="20" y="120" width="210" height="40" as="geometry" />
        </mxCell>
      </root>
    </mxGraphModel>
  </diagram>
</mxfile>
